<?xml version="1.0" standalone="no"?>
<!DOCTYPE svg PUBLIC "-//W3C//DTD SVG 1.1//EN" "http://www.w3.org/Graphics/SVG/1.1/DTD/svg11.dtd" >
<!--
2013-9-30: Created.
-->
<svg>
<metadata>
Created by iconfont
</metadata>
<defs>

<font id="iconfont" horiz-adv-x="1024" >
  <font-face
    font-family="iconfont"
    font-weight="500"
    font-stretch="normal"
    units-per-em="1024"
    ascent="896"
    descent="-128"
  />
    <missing-glyph />
    
    <glyph glyph-name="daohang" unicode="&#58941;" d="M957.335183 479.817412 274.789948 479.817412 274.789948 544.285702 892.866892 544.285702 892.866892 577.031501 274.789948 577.031501 274.789948 641.499791 957.335183 641.499791ZM957.335183 219.897637 274.789948 219.897637 274.789948 283.342622 892.866892 283.342622 892.866892 317.111726 274.789948 317.111726 274.789948 382.603323 957.335183 382.603323ZM957.335183-41.045443 274.789948-41.045443 274.789948 24.446154 892.866892 24.446154 892.866892 56.168646 274.789948 56.168646 274.789948 121.660242 957.335183 121.660242ZM160.281985 434.515646c-53.838186 0-97.634668 43.795459-97.634668 97.650017 0 53.838186 43.795459 97.634668 97.634668 97.634668 53.839209 0 97.633644-43.795459 97.633644-97.634668C257.915629 478.311105 214.121194 434.515646 160.281985 434.515646zM160.281985 564.709871c-17.940604 0-32.54523-14.603603-32.54523-32.544207s14.603603-32.56058 32.54523-32.56058 32.54523 14.619976 32.54523 32.56058S178.223612 564.709871 160.281985 564.709871zM160.281985 174.156874c-53.838186 0-97.634668 43.795459-97.634668 97.633644 0 53.839209 43.795459 97.634668 97.634668 97.634668 53.839209 0 97.633644-43.795459 97.633644-97.634668C257.915629 217.952332 214.121194 174.156874 160.281985 174.156874zM160.281985 304.335748c-17.940604 0-32.54523-14.58723-32.54523-32.544207 0-17.925255 14.603603-32.544207 32.54523-32.544207s32.54523 14.618952 32.54523 32.544207C192.828238 289.747495 178.223612 304.335748 160.281985 304.335748zM160.281985-86.200876c-53.838186 0-97.634668 43.794435-97.634668 97.634668 0 53.838186 43.795459 97.633644 97.634668 97.633644 53.839209 0 97.633644-43.795459 97.633644-97.633644C257.915629-42.407464 214.121194-86.200876 160.281985-86.200876zM160.281985 43.976976c-17.940604 0-32.54523-14.588253-32.54523-32.544207 0-17.926278 14.603603-32.546254 32.54523-32.546254s32.54523 14.619976 32.54523 32.546254C192.828238 29.389746 178.223612 43.976976 160.281985 43.976976z"  horiz-adv-x="1024" />

    
    <glyph glyph-name="canvass" unicode="&#59752;" d="M1014.022268 550.366584c0.007225 0.494913 0.025288 0.989826 0.025288 1.484739l-0.639413 0-123.580103 298.024243 0 6.238792L157.23779 856.114358l0-1.885726L10.718295 551.851323 10.49432 551.851323c0-0.151725 0.003613-0.30345 0.003613-0.455175L9.862132 550.081197l0.661088-0.339575c1.054851-69.052988 53.869639-125.765667 121.315064-132.95816l0-504.731645 61.137995 0 0 0.1156 634.077302 0.242038c1.145163-0.151725 4.692641-0.527425 9.717632-0.527425 14.363311 0 41.13918 2.879165 62.550483 21.880929 12.744909 11.314358 27.986058 32.635349 27.986058 69.786326l0 105.427277c0 26.851732-23.008029 77.679644-110.293318 77.679644l-275.717039 0 69.251676 69.251676c11.444408 11.408283 11.444408 29.889847 0 41.29813-11.368546 11.393833-29.886234 11.393833-41.28368 0l-124.360404-124.349566c-11.372158-11.393833-11.372158-29.882622 0-41.319805l131.141071-131.050758c5.707754-5.704142 13.171185-8.547181 20.652678-8.547181 7.485105 0 14.944923 2.84304 20.652678 8.547181 11.401058 11.397446 11.401058 29.893459 0 41.305355l-87.155239 87.075764c1.065688-0.097538 1.968814-0.610513 3.012827-0.610513l283.812658 0c39.141466 0 51.048275-12.986947 51.922501-19.276314l0-105.427277c0-12.278896-2.792465-21.028378-8.207606-25.973894-7.969181-7.243068-22.162704-7.615156-30.178847-6.997418L192.976279-29.418415 192.976279 424.264954c34.315163 12.582347 62.182008 38.653778 77.163057 71.744303 21.346278-47.12871 68.836238-80.002484 123.843816-80.002484 48.898836 0 91.855105 25.991957 115.773485 64.880548 23.936443-38.892203 66.903549-64.880548 115.820447-64.880548 57.258167 0 106.37014 35.651789 126.30393 85.923375 19.941015-50.275199 69.052988-85.923375 126.336443-85.923375 74.258604 0 134.833049 59.963931 135.808424 134.038298l0.1156 0.04335L1014.022268 550.366584 1014.022268 550.366584zM878.213843 477.133931c-41.21143 0-74.702942 33.5457-74.702942 74.717392l-42.129006 0-19.001764 0-42.114556 0c0-41.171693-33.50235-74.717392-74.692105-74.717392-41.233105 0-74.721005 33.5457-74.721005 74.717392l-21.039215 0-40.124067 0-20.992253 0c0-41.171693-33.505962-74.717392-74.717392-74.717392-41.21143 0-74.724617 33.5457-74.724617 74.717392l-37.100402 0-24.037593 0-37.100402 0c0-41.171693-33.505962-74.717392-74.67043-74.717392-36.804177 0-67.405687 26.721682-73.568616 61.741283l124.089466 256.111988 649.860326 0 105.365865-254.045636C946.797206 504.914076 915.668271 477.133931 878.213843 477.133931L878.213843 477.133931zM878.213843 477.133931"  horiz-adv-x="1024" />

    
    <glyph glyph-name="zan" unicode="&#58999;" d="M841.900615 487.813391 664.015206 487.813391c-4.087085 0-7.605212 1.823532-9.635451 4.979408-2.044566 3.188622-2.387373 6.788613-0.932232 10.313903 10.105149 19.105127 57.494459 115.41052 44.899606 217.797421-3.51915 28.749788-18.948561 67.455321-72.482825 88.576361-13.886265 5.465478-39.682791 8.026814-59.192124 8.601912-46.860261 1.38044-56.329936-7.693216-60.373019-11.568477-0.164752-0.155543-0.324388-0.316202-0.484024-0.476861C490.730581 790.628114 491.958548 768.544143 493.514997 740.584348c0.795109-14.287401 1.694595-30.466895 0.857531-48.953945-4.579295-49.570999-11.171434-76.334549-24.283056-98.636484-40.689724-69.270666-109.423155-104.141872-122.656551-105.213273l-96.509031 0L86.587054 487.780645c-11.761881 0-21.296025-9.534144-21.296025-21.296025L65.291029 51.738617c0-11.760858 9.534144-21.296025 21.296025-21.296025l164.337859 0c0.858554 0 1.700735 0.065492 2.533706 0.164752l104.601336 0c1.191128-0.969071 2.534729-2.081405 3.739161-3.082198 22.952758-19.025309 83.921341-69.563332 184.571692-69.563332l209.634508 0c53.634548 0 96.863095 29.224602 112.819508 76.270081 0.13917 0.409322 0.26606 0.823761 0.38067 1.24127 2.246157 8.247848 8.025791 25.420973 15.344476 47.162136 27.735691 82.408895 74.159 220.339314 74.159 294.15653C958.708971 449.423035 918.317029 487.813391 841.900615 487.813391zM107.883079 445.187571l121.744785 0 0-372.152928L107.883079 73.034643 107.883079 445.187571zM844.182588 96.221738c-7.649214-22.723537-13.225209-39.289841-15.882736-48.862871-10.205433-29.319769-37.183877-46.803979-72.293513-46.803979l-209.634508 0c-85.292572 0-135.816269 41.879829-157.38961 59.763129-9.691733 8.03193-15.541975 12.881378-24.845874 12.881378l-91.914386 0L272.221962 445.187571l75.364455 0c20.070104 0 51.52142 17.555841 74.262354 33.985022 24.394596 17.623379 58.936297 47.932686 84.96409 92.242867 19.039635 32.386618 25.602098 68.703755 30.019711 116.802216 0.029676 0.317225 0.051165 0.63445 0.066515 0.952698 0.975211 20.862143-0.039909 39.114856-0.855484 53.780881-0.63445 11.403724-1.402953 25.209148-0.179079 31.395034 15.941064 3.081175 61.369719 0.632403 74.387197-4.490268 27.712155-10.934027 42.701544-28.639271 45.822628-54.138014 11.341303-92.193749-35.07689-182.903703-40.407292-192.944384-0.493234-0.932232-0.74906-1.486864-0.74906-1.486864-7.703449-16.70138-6.353708-35.947723 3.624551-51.509141 9.889231-15.376199 26.888394-24.556279 45.473681-24.556279l177.88541 0c52.712549 0 74.215282-19.825534 74.215282-68.429509C916.115897 309.94947 869.322152 170.915927 844.182588 96.221738z"  horiz-adv-x="1024" />

    
    <glyph glyph-name="bofangshu" unicode="&#59002;" d="M512-128C229.230208-128 0 101.230234 0 384 0 666.769766 229.230208 896 512 896 794.769792 896 1024 666.769766 1024 384 1024 101.230234 794.769792-128 512-128ZM512-25.6C738.215834-25.6 921.6 157.784166 921.6 384 921.6 610.215834 738.215834 793.6 512 793.6 285.784166 793.6 102.4 610.215834 102.4 384 102.4 157.784166 285.784166-25.6 512-25.6ZM473.873183 669.165158 473.873183 669.165158 761.679063 482.486118C795.962767 460.239206 819.195151 433.58551 819.2 383.953459 819.204849 334.313165 795.967836 307.649485 761.638871 285.373235L473.849789 98.816358C402.771046 52.740198 307.2 100.76119 307.2 189.325005L307.2 578.674995C307.2 665.526682 401.127552 716.350003 473.873183 669.165158ZM418.149243 583.254733C413.427625 586.317312 409.6 584.199987 409.6 578.674995L409.6 189.325005C409.6 183.733094 413.789133 181.915546 418.149243 184.74199L705.938324 371.298816C720.422113 380.697446 720.419005 387.189965 705.938324 396.586598L418.149243 583.254733Z"  horiz-adv-x="1024" />

    
    <glyph glyph-name="wenzhang" unicode="&#58977;" d="M134.206914-128C79.258187-128 34.54716-83.288973 34.54716-28.312798L34.54716 736.797453c0 54.948727 44.711027 99.687202 99.604861 99.687202l569.797992 0c6.367685 0 11.527705-5.16002 11.527705-11.527705 0-6.340238-5.16002-11.527705-11.527705-11.527705L134.152021 813.429245c-42.185911 0-76.494557-34.36354-76.494557-76.631792l0-765.110251c0-42.240805 34.36354-76.604345 76.549451-76.604345l676.950755 0c42.240805 0 76.549451 34.308646 76.549451 76.494557L887.70712 616.909321c0 6.367685 5.187467 11.527705 11.527705 11.527705 6.367685 0 11.582599-5.16002 11.582599-11.527705l0-645.359354c0-54.893834-44.711027-99.549967-99.659755-99.549967L134.206914-128zM478.30891 480.745167c0-6.367685-5.16002-11.527705-11.527705-11.527705L213.775526 469.217462c-6.395132 0-11.555152 5.16002-11.555152 11.527705l0 0c0 6.367685 5.16002 11.527705 11.555152 11.527705l253.005679 0C473.148889 492.272872 478.30891 487.112851 478.30891 480.745167L478.30891 480.745167zM713.693668 245.387855c0-6.367685-5.16002-11.527705-11.527705-11.527705L213.775526 233.86015c-6.395132 0-11.555152 5.16002-11.555152 11.527705l0 0c0 6.367685 5.16002 11.527705 11.555152 11.527705l488.390437 0C708.561094 256.915561 713.693668 251.75554 713.693668 245.387855L713.693668 245.387855zM986.07687 892.503812c4.501294-4.501294 4.501294-11.774727 0-16.303469L593.94277 484.121137c-4.556188-4.501294-11.857068-4.501294-16.358362 0l0 0c-4.501294 4.528741-4.501294 11.802174 0 16.303469L969.773401 892.531259C974.302142 897.06 981.575575 897.032553 986.07687 892.503812L986.07687 892.503812z"  horiz-adv-x="1024" />

    
    <glyph glyph-name="xiangshang" unicode="&#58981;" d="M66.56 790.1952a38.92736 38.92736 0 0 0 38.92224 38.92736h813.03552c21.504 0 38.92736-17.42848 38.92736-38.92736a38.92736 38.92736 0 0 0-38.92736-38.93248H105.48224A38.92736 38.92736 0 0 0 66.56 790.1952zM512.08704 680.42752a38.9376 38.9376 0 0 0 38.93248-38.93248v-663.69024a38.93248 38.93248 0 0 0-77.85984 0V641.50016a38.93248 38.93248 0 0 0 38.92736 38.92736zM484.57216 668.77952a38.93248 38.93248 0 0 0 55.04 0l292.12672-292.13696a38.92224 38.92224 0 0 0 0-55.04512 38.912 38.912 0 0 0-55.04 0L484.57216 613.72928a38.912 38.912 0 0 0 0 55.05024zM539.61216 668.77952a38.93248 38.93248 0 0 0 0-55.05536l-292.13696-292.12672a38.90176 38.90176 0 0 0-55.04512 0 38.912 38.912 0 0 0 0 55.04512l292.14208 292.13696a38.93248 38.93248 0 0 0 55.04 0z"  horiz-adv-x="1024" />

    
    <glyph glyph-name="xiangxia" unicode="&#58982;" d="M957.44-22.1952a38.92736 38.92736 0 0 0-38.92224-38.92736H105.48736A38.92224 38.92224 0 0 0 66.56-22.1952a38.92736 38.92736 0 0 0 38.92736 38.93248h813.03552a38.92736 38.92736 0 0 0 38.91712-38.93248zM511.91296 87.57248a38.9376 38.9376 0 0 0-38.93248 38.93248V790.19008a38.93248 38.93248 0 0 0 77.85984 0v-663.69024a38.93248 38.93248 0 0 0-38.92736-38.92736zM539.42784 99.22048a38.93248 38.93248 0 0 0-55.04 0L192.26624 391.35744a38.92224 38.92224 0 0 0 0 55.04512 38.912 38.912 0 0 0 55.04 0l292.12672-292.13184a38.912 38.912 0 0 0-0.00512-55.05024zM484.38784 99.22048a38.93248 38.93248 0 0 0 0 55.05536l292.13696 292.12672a38.90176 38.90176 0 0 0 55.04512 0 38.912 38.912 0 0 0 0-55.04512l-292.14208-292.13696a38.93248 38.93248 0 0 0-55.04 0z"  horiz-adv-x="1024" />

    
    <glyph glyph-name="QQ" unicode="&#59198;" d="M512 896C229.003636 896 0 666.996364 0 384s229.003636-512 512-512 512 229.003636 512 512S794.996364 896 512 896z m210.385455-641.396364c-7.447273-9.309091-26.996364 1.861818-41.89091 32.581819-3.723636-13.963636-13.032727-36.305455-34.443636-64.232728 35.374545-8.378182 44.683636-42.821818 33.512727-61.44-8.378182-13.032727-26.996364-24.203636-59.578181-24.203636-58.647273 0-83.781818 15.825455-95.883637 26.996364-1.861818 2.792727-5.585455 3.723636-10.24 3.723636-4.654545 0-7.447273-0.930909-10.24-3.723636-11.170909-11.170909-37.236364-26.996364-95.883636-26.996364-32.581818 0-52.130909 11.170909-59.578182 24.203636-12.101818 18.618182-1.861818 53.061818 33.512727 61.44-20.48 27.927273-29.789091 50.269091-34.443636 64.232728-13.963636-30.72-34.443636-42.821818-41.890909-32.581819-5.585455 8.378182-8.378182 26.065455-7.447273 38.167273 3.723636 46.545455 34.443636 85.643636 53.061818 106.123636-2.792727 5.585455-8.378182 40.029091 14.894546 63.301819v1.861818c0 92.16 65.163636 158.254545 148.014545 158.254545 81.92 0 148.014545-66.094545 148.014546-158.254545v-1.861818c23.272727-23.272727 17.687273-57.716364 14.894545-63.301819 17.687273-20.48 49.338182-59.578182 53.061818-106.123636 0.930909-12.101818-0.930909-29.789091-7.447272-38.167273z"  horiz-adv-x="1024" />

    
    <glyph glyph-name="jingyin" unicode="&#58910;" d="M524.8 746.666667h-2.133333c-8.533333 0-17.066667-2.133333-25.6-8.533334-125.866667-108.8-192-166.4-198.4-172.8H196.266667c-12.8 0-23.466667-4.266667-32-12.8-10.666667-10.666667-14.933333-21.333333-14.933334-32v-277.333333c0-12.8 4.266667-23.466667 12.8-32 8.533333-8.533333 19.2-12.8 32-12.8H298.666667c2.133333-2.133333 21.333333-19.2 53.333333-46.933333 32-27.733333 66.133333-55.466667 96-81.066667 32-25.6 46.933333-40.533333 49.066667-40.533333 8.533333-6.4 17.066667-8.533333 25.6-8.533334h2.133333c17.066667 2.133333 27.733333 12.8 32 32v661.333334c-4.266667 19.2-14.933333 29.866667-32 32z m-8.533333-676.266667c-6.4 4.266667-198.4 170.666667-198.4 170.666667H194.133333V524.8h123.733334s46.933333 42.666667 198.4 174.933333v-629.333333zM776.533333 384l89.6 89.6c8.533333 8.533333 8.533333 21.333333 0 29.866667s-21.333333 8.533333-29.866666 0L746.666667 413.866667l-89.6 89.6c-8.533333 8.533333-21.333333 8.533333-29.866667 0s-8.533333-21.333333 0-29.866667l89.6-89.6-89.6-89.6c-8.533333-8.533333-8.533333-21.333333 0-29.866667s21.333333-8.533333 29.866667 0l89.6 89.6 89.6-89.6c8.533333-8.533333 21.333333-8.533333 29.866666 0s8.533333 21.333333 0 29.866667L776.533333 384z"  horiz-adv-x="1024" />

    
    <glyph glyph-name="xiazai" unicode="&#58898;" d="M472.983 166.746c9.23-9.23 24.195-9.23 33.426 0l289.583 289.583c9.23 9.23 9.23 24.195 0 33.426-9.215 9.214-24.179 9.214-33.41 0L513.324 240.497V814.343c0 13.042-10.585 23.628-23.628 23.628s-23.628-10.585-23.628-23.628v-573.846L216.81 489.755c-9.23 9.214-24.195 9.214-33.41 0-9.23-9.23-9.23-24.195 0-33.426l289.583-289.583z m418.386 46.39c-13.043 0-23.628-10.586-23.628-23.629v-147.674c0-18.493-14.712-33.472-32.874-33.472H144.525c-18.162 0-32.875 14.98-32.875 33.472V181.632v7.876c0 13.043-10.585 23.629-23.628 23.629s-23.628-10.586-23.628-23.629v-165.395c0-34.795 28.211-63.008 63.008-63.008h724.587c34.796 0 63.008 28.212 63.008 63.008V181.632v7.876c0 13.042-10.585 23.627-23.628 23.627z"  horiz-adv-x="1024" />

    
    <glyph glyph-name="bofang" unicode="&#58924;" d="M359.469 749.344l542.906-305.063c39.844-25.875 39.75-90.656-0.094-116.531l-542.813-305.063c-39.844-25.875-89.344 6.469-89.344 58.219v610.219c0 51.75 49.5 84.094 89.344 58.219z"  horiz-adv-x="1024" />

    
    <glyph glyph-name="guanliyuan" unicode="&#59156;" d="M512 864C246.4 864 32 649.6 32 384s214.4-480 480-480 480 214.4 480 480S777.6 864 512 864zM268.8 102.4l19.2-32 44.8-22.4 16 118.4-80-64z m86.4 67.2l-19.2-121.6 35.2-16 25.6 163.2-41.6-25.6zM393.6 195.2l-25.6-163.2 35.2-16 32 204.8zM435.2 220.8l-32-204.8 35.2-19.2 35.2 252.8zM473.6 249.6l-35.2-252.8 32-16 44.8 294.4zM515.2 275.2l-44.8-294.4 35.2-16 51.2 339.2zM556.8 304l-51.2-339.2 32-16 57.6 380.8zM595.2 329.6l-57.6-380.8 35.2-19.2 64 428.8zM636.8 358.4l-64-428.8 35.2-16L678.4 384zM678.4 384L608-86.4c12.8 3.2 25.6 6.4 35.2 9.6l73.6 489.6-38.4-28.8zM716.8 412.8l-73.6-489.6c12.8 3.2 25.6 9.6 38.4 12.8l73.6 505.6-38.4-28.8zM758.4 438.4L681.6-64c12.8 6.4 25.6 9.6 38.4 16L800 467.2l-41.6-28.8zM800 467.2l-76.8-515.2c12.8 6.4 25.6 12.8 38.4 22.4l76.8 521.6-38.4-28.8zM838.4 492.8l-76.8-521.6c12.8 9.6 28.8 19.2 41.6 28.8l76.8 518.4-41.6-25.6zM880 521.6L803.2 0c16 9.6 28.8 22.4 41.6 35.2l70.4 467.2-35.2 19.2zM912 505.6l-70.4-467.2c16 16 28.8 32 44.8 48l60.8 403.2-35.2 16zM947.2 486.4l-60.8-403.2c19.2 22.4 32 44.8 48 70.4l48 313.6-35.2 19.2zM982.4 470.4l-48-313.6C972.8 224 992 300.8 992 384c0 28.8-3.2 54.4-6.4 83.2l-3.2 3.2zM144 521.6l3.2 6.4c6.4 19.2 22.4 28.8 41.6 32 19.2 0 35.2-9.6 44.8-25.6 9.6-16 6.4-35.2-6.4-51.2-3.2 0-6.4-3.2-6.4-3.2 35.2-22.4 67.2-41.6 102.4-64 12.8-6.4 25.6-16 38.4-22.4 6.4-3.2 12.8-3.2 16 3.2 38.4 70.4 76.8 144 118.4 214.4-16 9.6-28.8 22.4-28.8 41.6 0 12.8 3.2 25.6 12.8 35.2 19.2 19.2 51.2 16 67.2-3.2 19.2-22.4 12.8-51.2-19.2-73.6 9.6-19.2 19.2-38.4 32-54.4 28.8-51.2 57.6-102.4 83.2-153.6 6.4-12.8 9.6-12.8 22.4-6.4 44.8 25.6 86.4 54.4 131.2 80 3.2 0 3.2 3.2 6.4 3.2-9.6 9.6-16 19.2-16 32 0 22.4 16 44.8 38.4 48 22.4 3.2 44.8-9.6 51.2-32 0-3.2 0-3.2 3.2-6.4v-16c-6.4-22.4-22.4-38.4-48-38.4 0-3.2-3.2-6.4-3.2-9.6-25.6-86.4-51.2-176-76.8-262.4-3.2-12.8-6.4-16-19.2-16H291.2c-12.8 0-16 3.2-19.2 16-22.4 70.4-41.6 144-60.8 214.4L192 467.2c-19.2 0-35.2 6.4-44.8 25.6-3.2 3.2-3.2 9.6-6.4 12.8 3.2 6.4 3.2 12.8 3.2 16m368-384h208c19.2 0 32-12.8 35.2-32 3.2-19.2-9.6-35.2-28.8-38.4H304c-16 0-28.8 9.6-32 22.4-3.2 12.8 0 28.8 12.8 38.4 6.4 3.2 16 6.4 22.4 6.4 67.2 3.2 137.6 3.2 204.8 3.2"  horiz-adv-x="1024" />

    
    <glyph glyph-name="guanzhu" unicode="&#59096;" d="M506.8 788.9C286 788.9 107.1 610 107.1 389.2S286-10.6 506.8-10.6s399.7 178.9 399.7 399.7-178.9 399.8-399.7 399.8zM306.9 491.5c0 63.1 52.2 114.2 116.6 114.2S540 554.5 540 491.5v-38.1c0-63.1-52.2-114.2-116.6-114.2s-116.6 51.1-116.6 114.2v38.1zM656.7 92c-45-22.8-95.9-35.9-149.9-35.9-130.5 0-243.1 75.2-297.8 184.4 23.3 39.1 65.8 65.5 114.5 65.5h199.8c73.6 0 133.2-59.6 133.2-133.2V92h0.2z m32.5 213.9L640 355.1l-50 51.1 49.7 49.7 50.5-50.5 100.5 100.5 49.2-49.2m-99.8-101.1l-49.7-49.7"  horiz-adv-x="1024" />

    
    <glyph glyph-name="ip" unicode="&#59000;" d="M512 896C229.216 896 0 666.752 0 384s229.216-512 512-512c282.72 0 512 229.248 512 512S794.72 896 512 896z m0-977.472C255.328-81.472 46.528 127.328 46.528 384S255.328 849.472 512 849.472 977.472 640.672 977.472 384 768.672-81.472 512-81.472zM778.272 138.24A376.16 376.16 0 0 0 512 28.704c-102.08 0-197.792 40-269.504 112.672a17.056 17.056 0 1 1-24.288-23.968 409.728 409.728 0 0 1 293.824-122.848c109.44 0 212.512 42.4 290.272 119.392a17.12 17.12 0 0 1 0.128 24.16 17.088 17.088 0 0 1-24.128 0.096zM330.336 602.496h52.736v-398.496h-52.736V602.496zM528.8 366.048h102.208c56.32 0 95.328 11.712 116.928 35.168 21.536 23.488 32.32 52.16 32.32 86.048 0 19.744-4.064 37.824-12.128 54.336s-18.656 29.312-31.936 38.464c-13.216 9.216-29.664 15.36-49.184 18.624-13.92 2.56-34.208 3.776-60.576 3.776h-150.336v-398.496h52.736v162.08z m0 189.408h101.92c23.936 0 40.352-1.152 49.184-3.52a59.2 59.2 0 0 0 33.344-23.52c8.384-11.904 12.608-26.144 12.608-42.848 0-22.976-7.136-40.864-21.472-53.536s-38.528-19.04-72.608-19.04h-103.008v142.432z"  horiz-adv-x="1024" />

    
    <glyph glyph-name="lianxidianhua--" unicode="&#58904;" d="M332 768.2c5.8-2.1 12.1-2.1 18.1-3.5 40.3-9.1 72.2-30.5 96-64.1 8.4-11.9 6.8-21.4-4.8-29.9-5.2-6-19.3-1.9-23.5 4.4-5.8 8.8-12.9 16.7-20.6 23.9-15.8 14.8-34.4 24.1-55.6 28.4-42.4 8-79.3-3.1-109.8-33.5-19-19-29.7-42.4-32.9-69.2-2.3-19.1 0.4-37.5 6.8-55.5 2.8-7.8 1.5-14.9-4.1-20.9-3.9-4.1-8.6-7-14.7-5.1-9.1 0.9-14.5 6-17.6 14.5C136.4 649.3 193.2 748 289 765.6c4.2 0.8 8.7 0.5 12.7 2.5h26.7c0.6-0.6 1.2-0.6 1.8 0 0.6 0.1 1.2 0.1 1.8 0.1zM66.2 39.7c5 11.8 9.5 14.7 22.4 14.7h150.8c12.9 0 21.5-10.1 19.1-22.3-1.6-8.3-9-14.3-17.7-14.5-8-0.1-15.9 0-23.9 0H88.7c-12.9 0-17.4 3-22.4 14.7-0.1 2.5-0.1 4.9-0.1 7.4zM330.2 768.2c-0.6-1.4-1.2-1.2-1.8 0h1.8zM186.9 543.4c15.4 1.4 22.3 12.4 17.1 27.2-25.7 71.8 20.6 148.7 96.1 159.6 14 2 28.1 1.8 41.9-1.7 5.4-2.1 9.6-6.1 13.8-9.8 27.5-24.9 44.4-55.7 48.8-92.6 5.1-42.7-7-80.7-34.7-113.4-9.7-11.5-21.1-21.3-34-29.2-3.1-1.9-3.5-3.5-1.5-6.5 14.5-21.3 30-41.8 46.8-61.3 10-11.6 20.3-23 31.2-33.6 13.2-12.9 26.5-25.9 41.3-37.1 2.2-1.2 3.9-2.9 5.7-4.6 45.5-45 96.1-83 151.9-114.3 4.8-2.7 9.5-5.6 14.3-8.3 4.2-2.4 4.2-2.4 6.5 1.8 7.7 13.9 13.9 28.7 23.4 41.6 21.4 29.2 49.9 46.3 86.2 50.3 13.8 1.5 27.2 0.5 40.5-2.7 1.6-0.4 3.3-0.8 4.7-1.8 8.9-9.5 15.1-20.8 20.4-32.6 9.4-20.9 13.7-42.9 12.4-65.8-2-34.7-14.4-65.1-37.9-91.1-16.2-17.9-35.5-30.9-57.8-39.6-1.6-0.6-3.1-1.4-4.8-1.5-10.5 2.7-21.2 4.8-31.2 9.1-2.2 1.3-4.6 1.9-7 2.6-6.2 1.7-12.2 3.8-18 6.7-2.1 1.2-4.3 2.2-6.7 2.6-2.7 0.4-5.1 1.5-7.4 2.9-2 1.3-4.1 2.2-6.5 2.8-5.3 1.7-10.5 3.7-15.3 6.6-1.2 0.9-2.6 1.5-4.1 1.8-6.9 2.6-13.7 5.6-20 9.4-6 3.4-12 6.5-18.3 9.1-5.9 2.6-11.4 5.9-17.4 8.4-2.3 0.9-4.5 0.8-6.8 0.2-1.2-0.3-2.4-0.7-3.6-1.1-4.1-1.5-6.9-4.4-8.6-8.4-0.5-1.1-0.8-2.3-1.3-3.5-0.4-0.8-0.8-1.5-1.6-1.8-4.2 2.2-8.3 4.4-12.5 6.6-0.5 1.8 1.1 2.3 2 3.3 7.7 9.1 6.4 20.5-3.7 26.9-21.8 13.8-43 28.3-63.5 43.9-16.3 12.5-32.1 25.6-47.4 39.3-13.9 12.5-27.5 25.4-40.4 38.8-19.9 20.7-38.7 42.2-56.2 64.9-24.1 31.2-45.9 64-65.1 98.4-6.6 11.8-13 23.6-18.6 35.9-5.4 12-19.3 14.8-27.8 7.4-0.9-0.8-1.8-1.8-3.2-1.2-7.9 18.1-15.3 36.6-22.1 55.4zM786.5 306.3c-35.1 9.7-67.9 4.3-98.4-15.2-16.4-10.5-29.2-24.6-38.6-41.7-6-10.8-11.8-21.8-17.4-32.8-1.3-2.6-2.2-2.7-4.7-1.4-62.4 34.5-120 75.3-170.4 126-1.1 1.1-2.3 1.9-3.5 2.8-15.6 14.5-29.3 30.7-43 47-24.1 28.7-44.2 60.2-64.4 91.6-3.4 5.3-3 6.1 2.7 9.5 14.2 8.5 29.3 15.4 42.2 25.9 24.4 19.8 39.3 45.3 44.1 76.5 1.1 6.8 0.2 13.8 1.7 20.6 1.6 6.8 5.5 11.5 11.8 14.2 1 0.4 2 0.7 3.1 0 15.3 0.8 23-6.5 22.4-21.8-2.4-56.3-27.7-99.5-74.9-130-2.6-1.7-3.1-2.6-1.3-5.4 55.8-85 127.3-153.6 214.7-205.8 2.9-1.7 3.8-1.1 5.4 1.6 26.7 45.3 66 71.9 118.2 78.6 83.5 10.6 160.9-49.1 173-132.8 0.9-6.4 1.6-12.8 1.6-19.2 0.2-14.9-7.8-22.4-22.6-21.3-6.6 0.1-12.6 5.4-14.6 13-1.5 5.7-0.8 11.6-1.5 17.3-2.5 22.7-10.8 42.9-24.7 60.8-14.3 18.4-32.7 31.1-54.6 38.8-2.4 0.9-4.4 1.9-6.3 3.2zM208.9 487.8c12 10.7 24.9 8.2 32.1-6.2 66.3-133 162.4-239.1 288-318.5 10.4-6.6 14-14.4 10.8-23.6-1.3-3.9-3.9-6.8-7-9.4-7.9-4.5-15.2-3.4-22.8 1.4-131.7 83.1-232.3 194.2-302 333.4-3.9 8-4.3 15.4 0.9 22.9zM743.4 35c-0.9-10.5-8.2-17.3-18.8-17.3-29.6-0.1-59.2 0-88.7 0H300.3c-10.4 0-17.4 4.8-19.8 13.6-3.1 11.2 4.9 22.4 16.5 23.1 1.7 0.1 3.4 0 5.1 0h361.4c1.7 0 3.7-0.8 5.2 0.8 0.4 0.4 0.8 0.6 1.4 0.6 16-5.3 31.8-11.2 48.1-15.2 6.8-1.7 13.7-3.1 20.8-3.5 1.6 0 3.6 0 4.4-2.1zM786.5 306.3c45.1-13.8 73-43.9 84.5-89.4 1.9-7.6 2.7-15.4 2.8-23.2 0.2-11.1 4-16.5 14.2-20.4-4.5-23.4-14.2-44.4-28.7-63.3-0.6-0.3-1.2-0.4-1.8-0.3-9.4 2-16.1-2-23-8.2-18.9-17.3-41.4-27.2-67-30.1-14.8-1.7-29.3-0.6-43.6 3.1-1.8 0.5-4.1 0.3-4.7 2.8 21 7.3 39.7 18.6 55.4 34.2 22.8 22.6 37.3 49.7 42.1 81.7 6.3 42.1-4.2 79.7-30.2 113.1zM719.2 77.3c24-7.8 47.9-7.1 71.7 0.4 17.7 5.5 33.1 15 46.4 28 6.4 6.2 13.7 7.7 21.9 4.4 12.6-7.8 14-21.1 3.2-31.3-9.7-9.2-20-17.4-31.9-23.4-1-2-2.8-3.2-4.8-4.1-6.2-2.9-12-6.7-19.2-7-17.2-6.3-35-9.4-53.4-9-23 2.3-45.3 7.5-67 15.4-5.4 2-10.8 4.1-16.7 4.7-0.4 0-0.7-0.1-1.1-0.1-1.3-0.1-2.6 0.1-3.5 1.2-1.3 3.1-4.3 2-6.6 2.5-3 0.1-5.5 1.9-8.1 3-1.4 2.7-4.1 2.2-6.5 2.6-2.7 0.4-5.1 1.3-7.3 2.9-1.4 2.7-4.1 2.3-6.4 2.7-1.8-0.1-3.2 0.9-4.6 1.9-1.3 2.3-3.5 2.7-5.9 2.5l-0.3-0.1-0.2 0.3c-1.3 2.3-3.5 2.7-5.8 2.6-0.9 0.2-2-0.3-2.5 0.9-1.1 2.6-3.4 2.8-5.7 2.8-12.1 4.7-23.5 10.6-35 16.5-3.4 1.7-6.6 3.6-9.9 5.5-1 2.6-3.1 2.9-5.4 3-4.9 2.3-7.9 6.1-8.4 11.6-0.5 2.7-0.5 5.4 0 8.1-0.1 1.2 0 2.4 1.1 3.3 3.2 2.9 6.2 6 9.1 9.1 0.9 1 2.1 1.2 3.3 1.1 2.7 0.6 5.4 0.5 8.1 0 5.7-2.8 11.4-5.7 17.1-8.5 5.1-5.1 11.3-8.2 18.5-9 6.5-3.5 13.2-6.6 20.1-9.3 1-1.1 2-2.3 3.7-1.7 5.1-2.5 10.2-4.9 15.6-6.6 1.3-2.7 3.9-2.2 6.1-2.7 2.6-1 5.1-1.9 7.7-2.9 1.4-2.9 4.3-1.8 6.5-2.6 6.1-2.4 12-5.1 18.3-6.6 1.4-3.2 4.5-1.6 6.7-2.5 10.3-4.1 20.8-6.6 31.1-9.6zM451.6 629.4c-9.9-3.2-14.1-10.2-14.5-20.4-1.8-45.2-22.5-79.2-61.1-102.4-9.6-5.7-19.3-11.3-29-16.8-2.2-1.3-3-2-1.4-4.7 30.7-49.6 64.6-96.7 105.7-138.3 0.8-0.8 2.1-1.4 2-2.9-5.7 3.3-10.3 8.1-15.2 12.4-29.9 26.7-57.1 55.7-81.4 87.6-8.5 11.2-16.5 22.8-24.6 34.3-1.8 2.6-1.2 3.6 1.3 5.2 37.8 23.7 61.8 57.2 69.1 101.3 7.2 43.5-4 82.6-31.8 116.9-8.4 10.3-18.5 18.6-28.7 26.9 20.3-3.7 38-13 53.6-26.3 7.7-6.6 14.4-14.1 20.2-22.4 7.3-10.5 13.4-12.6 25.4-9 5.4-13.4 8.7-27.2 10.4-41.4zM806.6 44.3c8.3 3 16.5 6.3 23.9 11.1 1.2-1.9 3.1-0.9 4.6-0.9 35.4-0.1 70.7 0 106.1-0.1 13.2 0 22-11.9 18.1-24.1-2.4-7.3-9.1-12.6-16.9-12.6-39.7-0.1-79.3-0.1-119 0-12.1 0-20.5 11.5-17.4 23.2 0.4 1.1 1.3 2.1 0.6 3.4zM669.6 55.4c3.3 2.1 6.2 0 9.1-0.9 13.1-4.1 26-8.8 39.2-12.3 7-1.8 14.3-2.4 21.5-3.6 4.6-0.8 9.1-2.8 13.8-3.4-3.3-0.1-6.6-0.2-9.8-0.3-5.8 1.8-11.9 1.6-17.9 2.7-18.3 3.5-35.6 10.4-53.2 15.9-1 0.5-1.8 1.3-2.7 1.9zM630.1 70c2.7 0.3 6.2 2.9 6.4-2.7-2.3 0.6-4.5 1.4-6.4 2.7zM643.8 64.5c2.6 0.3 6.2 3 6.5-2.6-2.3 0.6-4.5 1.3-6.5 2.6zM554.6 105.9c3.2 1.4 5.6 1.6 5.4-3-1.9 0.8-3.8 1.6-5.4 3zM604.9 81c3 1.3 5.8 2.1 5.7-2.8-1.8 0.9-3.7 1.8-5.7 2.8zM613.2 77.3c2.9 1.2 5.6 2.3 5.8-2.6-2.1 0.5-4 1.3-5.8 2.6zM619.5 74.5c2.8 1.2 5.7 2.4 5.9-2.5-2.1 0.4-4.1 1.3-5.9 2.5zM658.4 58.9c2.6 0.3 6.3 3.2 6.6-2.5-2.3 0.6-4.6 1.2-6.6 2.5zM546.2 125.6v-8.1c-1.3 1.8-0.5 4-0.9 6l0.9 2.1zM270.5 689.1c2.6-0.1 5.1-1.8 6.1-5 1.1-3.6 0-6.7-3.3-8.7-4.3-2.6-8.6-5.3-12.6-8.4-14.8-11.7-21.1-27.6-23.4-45.7-1.5-12.4-1-24.7 0.8-37.1 0.8-5.6-1.7-9.4-6.3-10s-7.6 2.5-8.4 8.2c-2.5 18.5-3 36.9 1.9 55.1 6 22.3 19.3 39 39.5 50.1 2.6 1.4 3.1 1.5 5.7 1.5zM747.4 294.6c13.2-0.2 24.9-2.4 36.2-6.3 5.1-1.8 7.5-5.6 6.1-9.6-1.4-4.2-5.6-5.9-10.5-4.3-10.4 3.3-20.9 5.7-31.9 5.5-21.5-0.4-39-9.2-52.7-25.6-3.9-4.7-8-5.8-11.7-2.7-3.6 2.9-3.4 7.6 0.4 12.1 17 20.3 38.8 30.4 64.1 30.9zM328.3 702.8c8.7 0.3 17.4-1 26-2 1.4-0.2 2.7-0.5 4-1 3.6-1.4 5.6-4.9 4.8-8.4-0.9-3.9-4.6-6.4-8.6-5.7-15.3 2.6-30.6 3.5-46 0.8-4.8-0.8-8.8 2.1-9.4 6.5-0.5 4 2.2 7.2 7 8 7.3 1.3 14.7 2 22.2 1.8zM679.7 233c0.1-2-0.8-3.6-1.8-5.1-4.9-7.2-9.1-14.9-13-22.7-2.4-4.9-6.3-6.6-10.3-4.7-4.1 1.9-5.3 6.1-3 10.9 4.2 8.9 9.1 17.4 14.6 25.5 2.1 3 5 4.1 8.5 3 3.2-1 4.8-3.5 5-6.9zM603.5 121.6c-3.3-1.5-6.3-0.8-9 1.2-1.8 1.3-3.7 2.1-5.7 2.8-2.2 0.8-4.1 2.1-3.9 5 6.6-2.3 12.6-5.7 18.6-9zM556.5 138.1c-1.6-4.4-4.7-7.5-9.1-9.1 1.5 4.4 4.6 7.4 9.1 9.1zM649 101.3c-2.7-0.7-6-2.5-6.1 2.7 2.2-0.6 4.4-1.2 6.1-2.7zM663.2 95.8c-2.3 0.4-6.4-3.3-6.5 2.6 2.3-0.5 4.5-1.3 6.5-2.6zM688.2 86.7c-2.3 0.6-6.4-3.6-6.7 2.5 2.4-0.7 4.7-1.2 6.7-2.5zM627.3 110.6c-0.5-1-1-1.8-2.3-1.2-1.4 0.6-1.4 1.7-1.4 2.9 1.4-0.2 2.7-0.7 3.7-1.7zM567.9 139.1h-8.1c2.7 1.2 5.4 1.2 8.1 0z"  horiz-adv-x="1024" />

    
    <glyph glyph-name="liebiaoxunhuan" unicode="&#58880;" d="M905.615621 371.03446799999995c0 132.931319-65.364876 256.560237-174.885151 331.940698v0.031008c-1.24032 0.868224-2.356608 1.922496-3.627936 2.790721l-0.248064-0.403105a30.573893 30.573893 0 0 1-18.480771 5.891522 31.256069 31.256069 0 0 1-29.953734-32.465382 30.635909 30.635909 0 0 1 14.232675-24.341284l-0.124032-0.186049a340.839996 340.839996 0 0 0 151.071002-283.289137c0-185.272833-148.559354-336.188795-332.777914-340.653948l39.194119 39.194119a30.759941 30.759941 0 0 1 11.752034 22.821892 31.225061 31.225061 0 0 1-29.953734 32.465381 30.728933 30.728933 0 0 1-23.876164-10.356673l-0.372096 0.372096-116.5901-116.652117 116.90018-113.582324 0.31008 0.31008a30.697925 30.697925 0 0 1 23.6281-13.147394 31.256069 31.256069 0 0 1 32.403366 30.015749 30.914981 30.914981 0 0 1-13.860578 26.542853l0.744192 0.7752-40.341415 39.225127c218.451398 4.434145 394.855941 183.164288 394.855941 402.669959M487.410652 711.3473280000001l-38.139847-37.085575 0.744192-0.7752a30.759941 30.759941 0 0 1-13.860578-26.542853c0.682176-17.240451 15.162915-30.697925 32.403365-29.984741a30.697925 30.697925 0 0 1 23.628101 13.116386l0.279072-0.31008 116.869172 113.582324-116.528084 116.590101-0.372096-0.31008a30.697925 30.697925 0 0 1-23.907173 10.325665c-17.209443-0.651168-30.604901-15.193923-29.953733-32.434373a30.945989 30.945989 0 0 1 11.876066-22.883908l41.054599-41.085608C274.323638 767.626857 99.407479 589.57889 99.407479 371.00346c0-134.109624 66.450156-259.071886 177.675872-334.266299l34.728966 51.411273a340.964028 340.964028 0 0 0-150.388827 282.855026c0 182.947232 144.931417 332.343802 325.987162 340.343868"  horiz-adv-x="1024" />

    
    <glyph glyph-name="sousuo" unicode="&#58935;" d="M945.92 17.940000000000055L633 305.9c-0.76 0.76-1.56 1.49-2.36 2.19A318.79 318.79 0 0 1 704 512c0 176.73-143.27 320-320 320S64 688.73 64 512s143.27-320 320-320a318.44 318.44 0 0 1 175.72 52.5 48.78 48.78 0 0 1 5.43-6.49L878-50a48 48 0 0 1 67.89 0 48 48 0 0 1 0.03 67.94zM144 512c0 132.56 107.45 240 240 240s240-107.46 240-240-107.45-240-240-240-240 107.41-240 240z"  horiz-adv-x="1024" />

    
    <glyph glyph-name="index" unicode="&#58881;" d="M569.8048 874.7264a82.0736 82.0736 0 0 1-110.2848 0L13.568 451.2768a41.1392 41.1392 0 0 1 55.0912-61.1072l7.0912 6.7328V-45.05600000000004a82.2784 82.2784 0 0 1 82.2784-82.3808h239.4368v247.7056a57.9328 57.9328 0 0 0 57.9584 58.0096h112.6656a57.9328 57.9328 0 0 0 57.9584-58.0096v-247.7056h245.12a82.2784 82.2784 0 0 1 82.304 82.3808V391.5008c18.2784-16.5376 44.2112-15.2832 59.4176 1.664a41.1392 41.1392 0 0 1-2.9696 58.112L569.8048 874.7008z"  horiz-adv-x="1024" />

    
    <glyph glyph-name="app_icons--" unicode="&#58906;" d="M929.024 79.7184a452.9152 452.9152 0 0 1-240.2304 239.4112l-1.4336 0.5632a297.728 297.728 0 1 1-348.672 0c-0.512 0-0.9728-0.3584-1.4336-0.6144a449.3824 449.3824 0 0 1-275.712-404.48 9.5744 9.5744 0 0 1 9.6256-9.8304H143.36a9.6256 9.6256 0 0 1 9.6256 9.3184 359.7312 359.7312 0 0 0 360.192 349.5936 359.7312 359.7312 0 0 0 360.192-349.5936 9.472 9.472 0 0 1 9.6256-9.3184h71.9872a9.5744 9.5744 0 0 1 9.6256 9.8304 445.44 445.44 0 0 1-35.584 165.12z m-416 274.688A206.2848 206.2848 0 1 0 658.9952 414.72a205.4144 205.4144 0 0 0-145.9712-60.3136z"  horiz-adv-x="1024" />

    
    <glyph glyph-name="weixin" unicode="&#58912;" d="M669.3 526.6c9.8 0 19.6 0 29.4-1.6C671 650.8 536.9 744 383.2 744 211.6 744 71 626.3 71 479.2c0-85 45.8-156.9 124.2-210.9l-31.1-93.2L273.6 229c39.2-8.2 70.3-16.3 109.5-16.3 9.8 0 19.6 0 31.1 1.6-6.5 21.3-9.8 42.5-9.8 65.4 0.1 135.7 116.2 246.9 264.9 246.9z m-168.4 85c24.5 0 39.2-16.3 39.2-39.2 0-22.9-16.3-39.2-39.2-39.2-24.5 0-47.4 16.4-47.4 39.2 0 24.5 24.6 39.2 47.4 39.2z m-216.3-73.1c-24.7 0-47.8 16.2-47.8 38.8 0 24.3 24.7 38.8 47.8 38.8s39.5-16.2 39.5-38.8c0.1-22.7-16.4-38.8-39.5-38.8zM953.8 283c0 125.9-124.2 227.2-264.8 227.2-148.8 0-266.5-103-266.5-227.2 0-125.9 117.7-227.2 266.5-227.2 31.1 0 62.1 8.2 93.2 16.3l85-47.4-22.9 78.5c62.1 47.4 109.5 109.5 109.5 179.8z m-351.5 39.2c-14.7 0-31.1 14.7-31.1 31.1 0 14.7 16.3 31.1 31.1 31.1 22.9 0 39.2-16.3 39.2-31.1 0-16.4-14.7-31.1-39.2-31.1z m178 7.6c-14.8 0-31.3 14.6-31.3 30.7 0 14.6 16.5 30.7 31.3 30.7 23.1 0 39.5-16.2 39.5-30.7 0-16.2-16.4-30.7-39.5-30.7z"  horiz-adv-x="1024" />

    
    <glyph glyph-name="suiji" unicode="&#58985;" d="M128 614.4h109.568c77.824 0 150.528-32.768 197.632-91.136 5.12-6.144 12.288-9.216 19.456-9.216 6.144 0 11.264 2.048 16.384 6.144 11.264 9.216 12.288 25.6 3.072 35.84-57.344 69.632-143.36 109.568-237.568 109.568H128c-14.336 0-25.6-11.264-25.6-25.6s11.264-25.6 25.6-25.6zM769.024 614.4h65.536l-32.768-32.768c-10.24-10.24-10.24-26.624 0-35.84 5.12-5.12 11.264-7.168 18.432-7.168 6.144 0 13.312 2.048 18.432 7.168l76.8 76.8c5.12 5.12 7.168 11.264 7.168 18.432s-3.072 13.312-7.168 18.432l-76.8 76.8c-10.24 10.24-26.624 10.24-35.84 0-10.24-10.24-10.24-26.624 0-35.84l32.768-32.768h-65.536c-155.648 0-282.624-125.952-282.624-281.6 0-126.976-111.616-230.4-248.832-230.4H128c-14.336 0-25.6-11.264-25.6-25.6s11.264-25.6 25.6-25.6h109.568c164.864 0 300.032 125.952 300.032 281.6 0 124.928 103.424 228.352 231.424 228.352zM836.608 223.232c-10.24 10.24-26.624 10.24-35.84 0s-10.24-26.624 0-35.84l32.768-32.768H768c-73.728 0-141.312 33.792-185.344 93.184-8.192 11.264-24.576 13.312-35.84 5.12s-13.312-24.576-5.12-35.84c53.248-70.656 138.24-113.664 226.304-113.664h65.536l-32.768-32.768c-10.24-10.24-10.24-26.624 0-35.84 5.12-5.12 11.264-7.168 18.432-7.168 6.144 0 13.312 2.048 18.432 7.168l76.8 76.8c5.12 5.12 7.168 11.264 7.168 18.432s-3.072 13.312-7.168 18.432l-77.824 74.752z"  horiz-adv-x="1024" />

    
    <glyph glyph-name="icon-test" unicode="&#58885;" d="M628.266667 215.466667c-5.333333 0-11.733333 2.133333-16 7.466666-7.466667 8.533333-7.466667 22.4 2.133333 29.866667 40.533333 36.266667 60.8 73.6 58.666667 109.866667-2.133333 58.666667-56.533333 99.2-57.6 100.266666-9.6 7.466667-11.733333 20.266667-4.266667 29.866667 7.466667 9.6 20.266667 11.733333 29.866667 4.266667 3.2-2.133333 71.466667-54.4 74.666666-132.266667 2.133333-50.133333-22.4-99.2-72.533333-144-4.266667-3.2-9.6-5.333333-14.933333-5.333333zM742.4 145.066667c-5.333333 0-11.733333 2.133333-16 7.466666-7.466667 8.533333-7.466667 22.4 2.133333 29.866667 67.2 59.733333 99.2 121.6 97.066667 183.466667-4.266667 98.133333-94.933333 167.466667-96 167.466666-9.6 7.466667-11.733333 20.266667-4.266667 29.866667 7.466667 9.6 20.266667 11.733333 29.866667 4.266667 4.266667-3.2 107.733333-81.066667 112-199.466667 3.2-75.733333-34.133333-149.333333-110.933333-217.6-3.2-3.2-8.533333-5.333333-13.866667-5.333333zM564.266667 39.466667c-6.4 0-11.733333 2.133333-16 5.333333-1.066667 0-2.133333 1.066667-2.133334 1.066667-1.066667 1.066667-2.133333 1.066667-2.133333 1.066666L275.2 204.8c-4.266667 2.133333-7.466667 4.266667-10.666667 7.466667-7.466667 4.266667-12.8 8.533333-19.2 9.6-7.466667 2.133333-16 1.066667-25.6 1.066666h-8.533333c-30.933333 0-55.466667 24.533333-55.466667 55.466667V466.133333c0 21.333333 8.533333 34.133333 17.066667 40.533334 17.066667 14.933333 41.6 13.866667 60.8 11.733333 30.933333-4.266667 39.466667-3.2 65.066667 10.666667 14.933333 8.533333 29.866667 17.066667 43.733333 25.6l36.266667 20.266666c18.133333 9.6 35.2 20.266667 53.333333 29.866667L554.666667 675.2c7.466667 4.266667 17.066667 4.266667 24.533333 0 7.466667-4.266667 11.733333-12.8 11.733333-21.333333 0 0-3.2-582.4-3.2-589.866667 1.066667-12.8-9.6-24.533333-23.466666-24.533333zM539.733333 64c0-2.133333 0-4.266667 1.066667-6.4-1.066667 2.133333-1.066667 4.266667-1.066667 6.4zM228.266667 273.066667c9.6 0 19.2 0 28.8-3.2 14.933333-3.2 25.6-10.666667 34.133333-17.066667 3.2-2.133333 5.333333-4.266667 8.533333-5.333333L539.733333 106.666667c0 57.6 1.066667 190.933333 3.2 504.533333l-86.4-49.066667c-18.133333-9.6-35.2-20.266667-53.333333-29.866666L366.933333 512c-14.933333-8.533333-28.8-17.066667-43.733333-24.533333-36.266667-21.333333-56.533333-22.4-96-17.066667-13.866667 2.133333-19.2 1.066667-21.333333 0v-192c0-3.2 3.2-6.4 6.4-6.4h7.466666c2.133333 0 5.333333 1.066667 8.533334 1.066667z"  horiz-adv-x="1024" />

    
    <glyph glyph-name="zanting" unicode="&#58961;" d="M511.5 8c208 0 376.7 168.5 376.7 376.3S719.6 760.6 511.5 760.6c-208 0-376.7-168.5-376.7-376.3 0.1-207.8 168.7-376.3 376.7-376.3z m0-70.9c-247.2 0-447.7 200.2-447.7 447.2S264.2 831.5 511.5 831.5c247.2 0 447.6-200.2 447.6-447.2 0.1-247-200.4-447.2-447.6-447.2z m0 0M420 244c-19.8 0-36 16.2-36 36V488c0 19.8 16.2 36 36 36s36-16.2 36-36v-208c0-19.8-16.2-36-36-36zM612 244c-19.8 0-36 16.2-36 36V488c0 19.8 16.2 36 36 36s36-16.2 36-36v-208c0-19.8-16.2-36-36-36z"  horiz-adv-x="1024" />

    
    <glyph glyph-name="zuozhe" unicode="&#58978;" d="M887.466667-128H125.155556C56.888889-128 0-71.111111 0-2.844444V765.155556C0 833.422222 56.888889 896 130.844444 896h512v-62.577778h-512c-34.133333 0-62.577778-34.133333-62.577777-68.266666v-762.311112c0-34.133333 28.444444-62.577778 62.577777-62.577777h762.311112c34.133333 0 68.266667 28.444444 68.266666 62.577777v512H1024v-512c0-73.955556-62.577778-130.844444-136.533333-130.844444z m-409.6 278.755556c-11.377778-11.377778-22.755556-11.377778-34.133334-17.066667l-278.755555-136.533333c-34.133333-17.066667-56.888889 11.377778-45.511111 45.511111l136.533333 278.755555c0 11.377778 5.688889 22.755556 17.066667 34.133334L768 850.488889c22.755556 22.755556 62.577778 22.755556 91.022222 0l113.777778-113.777778c22.755556-22.755556 22.755556-62.577778 0-91.022222l-494.933333-494.933333z m-295.822223-73.955556c-5.688889-17.066667 5.688889-28.444444 22.755556-22.755556l170.666667 102.4L284.444444 247.466667l-102.4-170.666667z m136.533334 227.555556l358.4 358.4 113.777778-113.777778-358.4-358.4c-39.822222 45.511111-102.4 102.4-113.777778 113.777778z m585.955555 403.911111l-68.266666 68.266666c-11.377778 11.377778-34.133333 11.377778-45.511111 0l-68.266667-68.266666 108.088889-113.777778L904.533333 668.444444c11.377778 11.377778 11.377778 28.444444 0 39.822223z"  horiz-adv-x="1024" />

    
    <glyph glyph-name="zantingtingzhi" unicode="&#59099;" d="M735.9 831.1c-51.2 0-96-44.7-96-95.8v-702.6c0-51.1 44.8-95.8 96-95.8s96 44.7 96 95.8V735.3c0 51.1-44.8 95.8-96 95.8z m-447.8 0c-51.2 0-96-44.7-96-95.8v-702.6c0-51.1 44.8-95.8 96-95.8s96 44.7 96 95.8V735.3c-0.1 51.1-44.9 95.8-96 95.8z"  horiz-adv-x="1024" />

    
    <glyph glyph-name="cai" unicode="&#59005;" d="M208.601846 844.238514H104.311931c-28.824361 0-52.170557-23.192603-52.170557-51.812172V481.809298c0-28.568372 23.346196-51.760974 52.170557-51.760974h104.289915v414.19019z m52.119359 0v-417.466849a103.931531 103.931531 0 0 0 76.540709-80.022159l85.141939-422.893816 51.044205 12.645856a84.88595 84.88595 0 0 1 64.611621 82.274863v204.074424a103.931531 103.931531 0 0 0 104.289916 103.573147h277.338474a51.965765 51.965765 0 0 1 51.453788 60.311006l-69.52661 414.19019a52.016963 52.016963 0 0 1-51.453788 43.313338H260.721205z m-25.752493-466.05356H104.311931A103.931531 103.931531 0 0 0 0.022015 481.809298V792.426342A103.931531 103.931531 0 0 0 104.311931 895.999488h745.849528c50.993007 0 94.511136-36.606426 102.907575-86.524279l69.475413-414.241388a103.931531 103.931531 0 0 0-102.856378-120.570816h-277.338474c-28.773163 0-52.119359-23.192603-52.119359-51.812172v-204.074424a136.698122 136.698122 0 0 0-104.136322-132.499903l-51.044205-12.697054a52.119359 52.119359 0 0 0-63.792457 40.087876l-85.141939 422.893816a52.068161 52.068161 0 0 1-51.146601 41.62381z"  horiz-adv-x="1024" />

    
    <glyph glyph-name="shuliang1" unicode="&#59076;" d="M992.25552-64.000064h-32.255968V319.794752A63.897536 63.897536 0 0 1 895.487617 383.999488H768.511743a63.999936 63.999936 0 0 1-64.614335-64.204736v-383.794816H639.999872V831.58944A64.511935 64.511935 0 0 1 575.487937 895.998976H448.512063a64.204736 64.204736 0 0 1-64.511935-64.511935v-895.487105h-63.999936V576.204096a64.102336 64.102336 0 0 1-64.511935 63.795136h-126.975874a63.795136 63.795136 0 0 1-64.511935-63.795136v-640.20416H31.74448a32.051168 32.051168 0 0 1 0-63.999936h960.51104a32.051168 32.051168 0 0 1 0 63.999936z"  horiz-adv-x="1024" />

    
    <glyph glyph-name="shijian" unicode="&#58888;" d="M512 832C256 832 51.2 624 51.2 371.2s208-460.8 460.8-460.8 460.8 208 460.8 460.8S768 832 512 832z m0-876.8C284.8-44.8 99.2 140.8 99.2 368S284.8 780.8 512 780.8 924.8 595.2 924.8 368 742.4-44.8 512-44.8zM809.6 352H531.2V633.6c0 12.8-9.6 22.4-22.4 22.4-12.8 0-22.4-9.6-22.4-22.4v-307.2c0-12.8 9.6-22.4 22.4-22.4h300.8c12.8 0 22.4 9.6 22.4 22.4 0 16-9.6 25.6-22.4 25.6z"  horiz-adv-x="1024" />

    
    <glyph glyph-name="gonggao" unicode="&#58916;" d="M63.52 831.514v-782.917H790.73V831.514H63.52z m672.374-728.029H117.452V777.642h618.442v-674.157zM192.604 495.599h458.301v-55.114h-458.3V495.6zM192.604 383.76h458.301v-55.113h-458.3v55.114zM192.604 271.867h458.301v-55.112h-458.3v55.112zM192.604 607.885h229.148v-55.113H192.604v55.113zM958.486-63.245H371.311V-9.37h533.307V665.803h-56.451v53.874h110.32z"  horiz-adv-x="1024" />

    
    <glyph glyph-name="shuliang" unicode="&#59155;" d="M843.5 5.9h-663c-39.4 0-72 28.2-72 67.7v78.9c0 39.4 32 67.7 72 67.7h663c39.4 0 71.9-28.2 71.9-67.7v-78.9c0-39.5-31.9-67.7-71.9-67.7z m-79.4 157.2c-27.7 0-50.6-22.4-50.6-50.6 0-27.7 22.9-50.6 50.6-50.6 27.7 0 50.6 22.4 50.6 50.6 0 28.2-22.4 50.6-50.6 50.6z m79.4 113.5h-663c-39.4 0-72 28.2-72 67.7v78.9c0 39.4 32 67.7 72 67.7h663c39.4 0 71.9-28.2 71.9-67.7v-78.9c0-39.4-31.9-67.7-71.9-67.7zM714 383.7c0-27.7 22.9-50.6 50.6-50.6 27.7 0 50.6 22.4 50.6 50.6 0 27.7-22.4 50.6-50.6 50.6-28.2 0.1-50.6-22.9-50.6-50.6z m129.5 170h-663c-39.4 0-72 27.7-72 65.6V696c0 38.4 32 66.1 72 66.1h663c39.4 0 71.9-27.7 71.9-66.1v-76.2c0-38.3-31.9-66.1-71.9-66.1z m-79.4 151.4c-27.7 0-50.6-22.4-50.6-50.6 0-28.2 22.9-50.6 50.6-50.6 27.7 0 50.6 22.4 50.6 50.6 0 28.2-22.4 50.6-50.6 50.6z m0 0"  horiz-adv-x="1024" />

    
    <glyph glyph-name="shangyishou" unicode="&#58883;" d="M206 31h-38c-30.928 0-56 25.072-56 56V680c0 30.928 25.072 56 56 56h38c30.928 0 56-25.072 56-56v-593c0-30.928-25.072-56-56-56z m168.686 386.191l422.304 303.4c32.294 23.201 77.282 15.83 100.484-16.464A72 72 0 0 0 911 662.117v-559.053c0-39.764-32.235-72-72-72a72 72 0 0 0-39.95 12.1L376.288 325.123c-25.73 17.16-32.677 51.93-15.517 77.66a56 56 0 0 0 13.915 14.408z"  horiz-adv-x="1024" />

    
    <glyph glyph-name="xiayishou" unicode="&#58882;" d="M817 736h38c30.928 0 56-25.072 56-56v-593c0-30.928-25.072-56-56-56h-38c-30.928 0-56 25.072-56 56V680c0 30.928 25.072 56 56 56zM648.314 349.809l-422.304-303.4c-32.294-23.201-77.282-15.83-100.484 16.464A72 72 0 0 0 112 104.883V663.936c0 39.764 32.235 72 72 72a72 72 0 0 0 39.95-12.1l422.762-281.959c25.73-17.16 32.677-51.93 15.517-77.66a56 56 0 0 0-13.915-14.408z"  horiz-adv-x="1024" />

    
    <glyph glyph-name="anli" unicode="&#58897;" d="M46.413598 896h371.308782a46.413598 46.413598 0 0 0 46.413597-46.413598v-371.308782a46.413598 46.413598 0 0 0-46.413597-46.413597H46.413598a46.413598 46.413598 0 0 0-46.413598 46.413597V849.586402a46.413598 46.413598 0 0 0 46.413598 46.413598z m559.864022 0h371.308782a46.413598 46.413598 0 0 0 46.413598-46.413598v-371.308782a46.413598 46.413598 0 0 0-46.413598-46.413597h-371.308782a46.413598 46.413598 0 0 0-46.413597 46.413597V849.586402a46.413598 46.413598 0 0 0 46.413597 46.413598zM46.413598 336.135977h371.308782a46.413598 46.413598 0 0 0 46.413597-46.413597v-371.308782a46.413598 46.413598 0 0 0-46.413597-46.413598H46.413598a46.413598 46.413598 0 0 0-46.413598 46.413598v371.308782a46.413598 46.413598 0 0 0 46.413598 46.413597z m559.864022 0h371.308782a46.413598 46.413598 0 0 0 46.413598-46.413597v-371.308782a46.413598 46.413598 0 0 0-46.413598-46.413598h-371.308782a46.413598 46.413598 0 0 0-46.413597 46.413598v371.308782a46.413598 46.413598 0 0 0 46.413597 46.413597z"  horiz-adv-x="1024" />

    
    <glyph glyph-name="youxi" unicode="&#58884;" d="M857.6 6.4c-76.8 0-153.6 25.6-262.4 89.6-19.2 12.8-51.2 19.2-83.2 19.2-38.4 0-64-6.4-89.6-25.6-108.8-64-185.6-89.6-262.4-89.6-57.6 0-108.8 32-134.4 89.6C0 140.8 0 192 0 236.8c0 224 134.4 544 345.6 544 32 0 51.2-12.8 76.8-19.2l38.4-12.8c19.2-6.4 38.4-12.8 51.2-12.8 12.8 0 38.4 12.8 57.6 19.2l12.8 6.4c32 12.8 64 25.6 96 25.6 211.2 0 345.6-320 345.6-544 0-51.2-6.4-96-25.6-140.8l-6.4-6.4c-25.6-57.6-76.8-89.6-134.4-89.6zM512 230.4c51.2 0 102.4-12.8 147.2-38.4 89.6-51.2 147.2-70.4 204.8-70.4 19.2 0 32 12.8 38.4 25.6 6.4 25.6 12.8 57.6 12.8 96 0 192-108.8 428.8-230.4 428.8-12.8 0-38.4-12.8-57.6-19.2l-19.2-6.4c-25.6-12.8-64-25.6-96-25.6-38.4 0-70.4 12.8-96 25.6l-38.4 12.8c-12.8 6.4-25.6 12.8-38.4 12.8-115.2 0-230.4-243.2-230.4-428.8 0-44.8 6.4-76.8 12.8-89.6 12.8-25.6 32-25.6 32-25.6 51.2 0 115.2 25.6 204.8 70.4 51.2 19.2 96 32 153.6 32zM448 364.8H275.2c-6.4 0-19.2 0-25.6 6.4-6.4 6.4-6.4 19.2-6.4 25.6 0 19.2 12.8 25.6 32 25.6H448c6.4 0 19.2-6.4 25.6-6.4 6.4-6.4 12.8-12.8 6.4-25.6 0-19.2-12.8-25.6-32-25.6M364.8 275.2c-6.4 0-19.2 6.4-25.6 6.4-6.4 12.8-12.8 19.2-12.8 32V480c0 6.4 6.4 19.2 6.4 25.6 12.8 0 19.2 6.4 32 6.4 19.2 0 32-12.8 32-32v-172.8c-6.4-19.2-19.2-32-32-32M652.8 396.8c0-38.4 32-64 64-64 38.4 0 64 32 64 64 0 38.4-32 64-64 64s-64-32-64-64"  horiz-adv-x="1024" />

    
    <glyph glyph-name="xinfangjubao" unicode="&#59528;" d="M572.753568 771.774969c-0.450254 0.667194-0.900508 1.327225-1.359972 1.977024a82.86717 82.86717 0 0 1-2.885717 3.768829 84.501387 84.501387 0 0 1-1.513467 1.790782 77.594084 77.594084 0 0 1-3.16508 3.390207v0.00307a63.869529 63.869529 0 0 1-1.648543 1.599424c-0.553608 0.527002-1.116425 1.03763-1.685382 1.53905s-1.149171 0.995675-1.726314 1.475604v0.004093a72.345557 72.345557 0 0 1-1.76213 1.41216 82.354495 82.354495 0 0 1-3.630683 2.637055 79.35519 79.35519 0 0 1-1.87367 1.224895 73.515194 73.515194 0 0 1-3.818971 2.258432l-0.00921 0.004093a69.557053 69.557053 0 0 1-3.929488 2.0067v0.00614a70.477004 70.477004 0 0 1-2.007722 0.906647v0.004093c-0.671288 0.288572-1.351785 0.56998-2.033306 0.846273a71.394907 71.394907 0 0 1-4.115729 1.506304v0.004093a79.464684 79.464684 0 0 1-2.084471 0.654915v0.005116a79.162809 79.162809 0 0 1-4.227269 1.127681v0.004093a75.922005 75.922005 0 0 1-4.271272 0.875949 73.982844 73.982844 0 0 1-8.651013 1.002838c-18.850286 1.088796-38.065891-4.89958-52.851613-17.966151h-0.008186a72.427421 72.427421 0 0 1-4.933349-4.80646 72.300532 72.300532 0 0 1-3.070936-3.518119 70.365463 70.365463 0 0 1-2.882648-3.76883c-0.468673-0.649798-0.918927-1.309829-1.362018-1.977023h-0.00921L15.223696 71.280297c-28.591118-50.03548 7.14471-107.215669 57.181213-107.215669h879.179949c50.036503 0 85.780517 57.181213 57.191446 107.215669L572.753568 771.774969z m-92.166959-551.909885h64.444626c3.946884 0 7.161082-3.219315 7.161082-7.158013v-103.321997c0-3.938698-3.214198-7.161082-7.161082-7.161082h-64.444626c-3.939721 0-7.163129 3.222385-7.163129 7.161082V212.707071c0 3.939721 3.222385 7.158013 7.163129 7.158013z m0 356.002398h64.444626c3.946884 0 7.161082-3.224431 7.161082-7.162106v-282.342918c0-3.938698-3.214198-7.159036-7.161082-7.159036h-64.444626c-3.939721 0-7.163129 3.220338-7.163129 7.159036V568.705376c0 3.937674 3.222385 7.162106 7.163129 7.162106z"  horiz-adv-x="1024" />

    
    <glyph glyph-name="shuliang3" unicode="&#58891;" d="M511.488 382.976m-491.52 0a491.52 491.52 0 1 1 983.04 0 491.52 491.52 0 1 1-983.04 0ZM781.312 136.192h-17.92v215.552c0 19.968-15.872 35.84-35.84 35.84h-71.68c-19.968 0-36.352-15.872-36.352-35.84v-216.064h-35.84V639.488c0 19.968-16.384 36.352-36.352 36.352H476.16c-19.968 0-36.352-15.872-36.352-35.84v-503.296h-35.84V496.128c0 19.968-16.384 35.84-36.352 35.84H296.448c-19.968 0-35.84-15.872-36.352-35.328v-359.936h-17.92c-9.728-0.512-17.408-9.216-16.896-18.944 0.512-9.216 7.68-16.384 16.896-16.896h539.648c9.728 0.512 17.408 9.216 16.896 18.944-1.024 8.704-8.192 15.872-17.408 16.384z"  horiz-adv-x="1024" />

    


  </font>
</defs>
</svg>
